<svg xmlns="http://www.w3.org/2000/svg" xml:space="preserve" style="enable-background:new 0 0 24 24" viewBox="0 0 24 24" id="sound-record">
  <g id="Layer_2">
    <g>
      <path d="M11 7v10c0 .5522.4473 1 1 1s1-.4478 1-1V7c0-.5522-.4473-1-1-1S11 6.4478 11 7zM14 9v6c0 .5522.4473 1 1 1s1-.4478 1-1V9c0-.5522-.4473-1-1-1S14 8.4478 14 9zM17 11v2c0 .5522.4473 1 1 1s1-.4478 1-1v-2c0-.5522-.4473-1-1-1S17 10.4478 17 11zM5 13c0 .5522.4473 1 1 1s1-.4478 1-1v-2c0-.5522-.4473-1-1-1s-1 .4478-1 1V13zM8 9v6c0 .5522.4473 1 1 1s1-.4478 1-1V9c0-.5522-.4473-1-1-1S8 8.4478 8 9zM2 13h1c.5527 0 1-.4478 1-1s-.4473-1-1-1H2c-.5527 0-1 .4478-1 1S1.4473 13 2 13zM22 11h-1c-.5527 0-1 .4478-1 1s.4473 1 1 1h1c.5527 0 1-.4478 1-1S22.5527 11 22 11z"></path>
    </g>
  </g>
</svg>
